# xmcd
#
# Track frame offsets:
#	150
#	20969
#	34698
#	48251
#	63068
#	82738
#	105622
#	119007
#	132160
#	147391
#	157130
#	166867
#	179746
#	189133
#	203879
#	206909
#	218427
#
# Disc length: 3235
#
# Revision: 1
# Processed by: cddbd v1.5.1PL0 Copyright (c) Steve Scherf et al.
# Submitted via: ExactAudioCopy v0.90a11
# Normalized: r0:TRMNUM
#
DISCID=f20ca111
DTITLE=Hank III and AssJack - 2002-03-17 Riverton IL disc 2
DYEAR=1900
DGENRE=
TTITLE0=Good Hearted Woman
TTITLE1=Broke, Lovesick and Driftin'
TTITLE2=Loaded Shot Gun (Hilbily HellRasier)
TTITLE3=Double A Daddy
TTITLE4=Dixie > 15 minute warning
TTITLE5=AssJackJam (hank n' joe)
TTITLE6=Life of Sin
TTITLE7=Gotta Buy My Pa A Truck
TTITLE8=Runn'n N' Gunn'n
TTITLE9=MFJ 
TTITLE10=Freeway Jam
TTITLE11=Hang On
TTITLE12=Tennessee Driver
TTITLE13=Gravel Pit>
TTITLE14=Gravel Pit Pt 2
TTITLE15=Disrespectful>
TTITLE16=Whiplash>Ministry>Dont A Understand A Word I Got To Say
EXTD=
EXTT0=
EXTT1=
EXTT2=
EXTT3=
EXTT4=
EXTT5=
EXTT6=
EXTT7=
EXTT8=
EXTT9=
EXTT10=
EXTT11=
EXTT12=
EXTT13=
EXTT14=
EXTT15=
EXTT16=
PLAYORDER=
